<svg width="25" height="24" viewBox="0 0 25 24" fill="none" xmlns="http://www.w3.org/2000/svg">
<path d="M18.207 15.707C18.2455 15.6685 18.2911 15.6379 18.3414 15.6171C18.3917 15.5962 18.4456 15.5855 18.5 15.5855C18.5544 15.5855 18.6083 15.5962 18.6586 15.6171C18.7089 15.6379 18.7545 15.6685 18.793 15.707C19.1406 16.0546 19.586 16.2879 20.0697 16.3757C20.5535 16.4634 21.0524 16.4014 21.5 16.198V20C21.7652 20 22.0196 20.1054 22.2071 20.2929C22.3946 20.4804 22.5 20.7348 22.5 21C22.5 21.2652 22.3946 21.5196 22.2071 21.7071C22.0196 21.8946 21.7652 22 21.5 22H3.5C3.23478 22 2.98043 21.8946 2.79289 21.7071C2.60536 21.5196 2.5 21.2652 2.5 21C2.5 20.7348 2.60536 20.4804 2.79289 20.2929C2.98043 20.1054 3.23478 20 3.5 20V16.198C4.39 16.603 5.475 16.439 6.207 15.708C6.24545 15.6695 6.29112 15.6389 6.3414 15.6181C6.39168 15.5972 6.44557 15.5865 6.5 15.5865C6.55443 15.5865 6.60832 15.5972 6.6586 15.6181C6.70888 15.6389 6.75455 15.6695 6.793 15.708C7.01716 15.9322 7.28329 16.11 7.57617 16.2313C7.86906 16.3526 8.18298 16.4151 8.5 16.4151C8.81702 16.4151 9.13094 16.3526 9.42383 16.2313C9.71672 16.11 9.98284 15.9322 10.207 15.708C10.2455 15.6695 10.2911 15.6389 10.3414 15.6181C10.3917 15.5972 10.4456 15.5865 10.5 15.5865C10.5544 15.5865 10.6083 15.5972 10.6586 15.6181C10.7089 15.6389 10.7545 15.6695 10.793 15.708C11.0172 15.9322 11.2833 16.11 11.5762 16.2313C11.8691 16.3526 12.183 16.4151 12.5 16.4151C12.817 16.4151 13.1309 16.3526 13.4238 16.2313C13.7167 16.11 13.9828 15.9322 14.207 15.708C14.2455 15.6695 14.2911 15.6389 14.3414 15.6181C14.3917 15.5972 14.4456 15.5865 14.5 15.5865C14.5544 15.5865 14.6083 15.5972 14.6586 15.6181C14.7089 15.6389 14.7545 15.6695 14.793 15.708C15.0172 15.9322 15.2833 16.11 15.5762 16.2313C15.8691 16.3526 16.183 16.4151 16.5 16.4151C16.817 16.4151 17.1309 16.3526 17.4238 16.2313C17.7167 16.11 17.9828 15.9322 18.207 15.708V15.707ZM16.5 6C16.7652 6 17.0196 6.10536 17.2071 6.29289C17.3946 6.48043 17.5 6.73478 17.5 7V9H18.5C19.2956 9 20.0587 9.31607 20.6213 9.87868C21.1839 10.4413 21.5 11.2044 21.5 12V13.586L20.793 14.293C20.7545 14.3315 20.7089 14.3621 20.6586 14.3829C20.6083 14.4038 20.5544 14.4145 20.5 14.4145C20.4456 14.4145 20.3917 14.4038 20.3414 14.3829C20.2911 14.3621 20.2455 14.3315 20.207 14.293C19.9828 14.0688 19.7167 13.891 19.4238 13.7697C19.1309 13.6484 18.817 13.5859 18.5 13.5859C18.183 13.5859 17.8691 13.6484 17.5762 13.7697C17.2833 13.891 17.0172 14.0688 16.793 14.293C16.7545 14.3315 16.7089 14.3621 16.6586 14.3829C16.6083 14.4038 16.5544 14.4145 16.5 14.4145C16.4456 14.4145 16.3917 14.4038 16.3414 14.3829C16.2911 14.3621 16.2455 14.3315 16.207 14.293C15.9828 14.0688 15.7167 13.891 15.4238 13.7697C15.1309 13.6484 14.817 13.5859 14.5 13.5859C14.183 13.5859 13.8691 13.6484 13.5762 13.7697C13.2833 13.891 13.0172 14.0688 12.793 14.293C12.7545 14.3315 12.7089 14.3621 12.6586 14.3829C12.6083 14.4038 12.5544 14.4145 12.5 14.4145C12.4456 14.4145 12.3917 14.4038 12.3414 14.3829C12.2911 14.3621 12.2455 14.3315 12.207 14.293C11.9828 14.0688 11.7167 13.891 11.4238 13.7697C11.1309 13.6484 10.817 13.5859 10.5 13.5859C10.183 13.5859 9.86906 13.6484 9.57617 13.7697C9.28328 13.891 9.01716 14.0688 8.793 14.293C8.75455 14.3315 8.70888 14.3621 8.6586 14.3829C8.60832 14.4038 8.55443 14.4145 8.5 14.4145C8.44557 14.4145 8.39168 14.4038 8.3414 14.3829C8.29112 14.3621 8.24545 14.3315 8.207 14.293C7.98284 14.0688 7.71671 13.891 7.42383 13.7697C7.13094 13.6484 6.81702 13.5859 6.5 13.5859C6.18298 13.5859 5.86906 13.6484 5.57617 13.7697C5.28329 13.891 5.01716 14.0688 4.793 14.293C4.75455 14.3315 4.70888 14.3621 4.6586 14.3829C4.60832 14.4038 4.55443 14.4145 4.5 14.4145C4.44557 14.4145 4.39168 14.4038 4.3414 14.3829C4.29112 14.3621 4.24545 14.3315 4.207 14.293L3.5 13.586V12C3.5 11.2044 3.81607 10.4413 4.37868 9.87868C4.94129 9.31607 5.70435 9 6.5 9H7.5V7C7.5 6.73478 7.60536 6.48043 7.79289 6.29289C7.98043 6.10536 8.23478 6 8.5 6C8.76522 6 9.01957 6.10536 9.20711 6.29289C9.39464 6.48043 9.5 6.73478 9.5 7V9H11.5V7C11.5 6.73478 11.6054 6.48043 11.7929 6.29289C11.9804 6.10536 12.2348 6 12.5 6C12.7652 6 13.0196 6.10536 13.2071 6.29289C13.3946 6.48043 13.5 6.73478 13.5 7V9H15.5V7C15.5 6.73478 15.6054 6.48043 15.7929 6.29289C15.9804 6.10536 16.2348 6 16.5 6ZM13 2C12.681 2.638 12.972 3.05 13.225 3.41C13.369 3.613 13.5 3.8 13.5 4C13.5 4.26522 13.3946 4.51957 13.2071 4.70711C13.0196 4.89464 12.7652 5 12.5 5C12.2348 5 11.9804 4.89464 11.7929 4.70711C11.6054 4.51957 11.5 4.26522 11.5 4C11.5 3.448 12 2.5 13 2ZM9 2C8.681 2.638 8.972 3.05 9.225 3.41C9.369 3.613 9.5 3.8 9.5 4C9.5 4.26522 9.39464 4.51957 9.20711 4.70711C9.01957 4.89464 8.76522 5 8.5 5C8.23478 5 7.98043 4.89464 7.79289 4.70711C7.60536 4.51957 7.5 4.26522 7.5 4C7.5 3.448 8 2.5 9 2ZM17 2C16.681 2.638 16.972 3.05 17.225 3.41C17.369 3.613 17.5 3.8 17.5 4C17.5 4.26522 17.3946 4.51957 17.2071 4.70711C17.0196 4.89464 16.7652 5 16.5 5C16.2348 5 15.9804 4.89464 15.7929 4.70711C15.6054 4.51957 15.5 4.26522 15.5 4C15.5 3.448 16 2.5 17 2Z" fill="white"/>
</svg>
