<svg width="100%" height="100%" viewBox="0 0 28 28" fill="none" xmlns="http://www.w3.org/2000/svg">
<path fill-rule="evenodd" clip-rule="evenodd" d="M9 4.4H18.6V2H21V4.4H22.2C22.8365 4.4 23.447 4.65286 23.8971 5.10294C24.3471 5.55303 24.6 6.16348 24.6 6.8V23.6C24.6 24.2365 24.3471 24.847 23.8971 25.2971C23.447 25.7471 22.8365 26 22.2 26H5.4C4.76348 26 4.15303 25.7471 3.70294 25.2971C3.25286 24.847 3 24.2365 3 23.6V6.8C3 6.16348 3.25286 5.55303 3.70294 5.10294C4.15303 4.65286 4.76348 4.4 5.4 4.4H6.6V2H9V4.4ZM5.4 9.2V23.6H22.2V9.2H5.4ZM7.8 12.8H10.2V15.2H7.8V12.8ZM12.6 12.8H15V15.2H12.6V12.8ZM17.4 12.8H19.8V15.2H17.4V12.8ZM17.4 17.6H19.8V20H17.4V17.6ZM12.6 17.6H15V20H12.6V17.6ZM7.8 17.6H10.2V20H7.8V17.6Z" fill="inherit"/>
</svg>
