<svg width="32" height="23" viewBox="0 0 32 23" fill="none" xmlns="http://www.w3.org/2000/svg">
<path d="M26.6667 20.2941C28.1333 20.2941 29.32 19.0765 29.32 17.5882L29.3333 2.70588C29.3333 1.21765 28.1333 0 26.6667 0H5.33333C3.86667 0 2.66667 1.21765 2.66667 2.70588V17.5882C2.66667 19.0765 3.86667 20.2941 5.33333 20.2941H0C0 21.7824 1.2 23 2.66667 23H29.3333C30.8 23 32 21.7824 32 20.2941H26.6667ZM5.33333 2.70588H26.6667V17.5882H5.33333V2.70588ZM16 21.6471C15.2667 21.6471 14.6667 21.0382 14.6667 20.2941C14.6667 19.55 15.2667 18.9412 16 18.9412C16.7333 18.9412 17.3333 19.55 17.3333 20.2941C17.3333 21.0382 16.7333 21.6471 16 21.6471Z" fill="#676767"/>
</svg>
