<svg width="28" height="28" viewBox="0 0 28 28" fill="none" xmlns="http://www.w3.org/2000/svg">
<path d="M11.6666 16.3333V13.2825L22.1013 2.84783C22.2304 2.71872 22.3657 2.62928 22.5073 2.5795C22.6488 2.52972 22.7986 2.50522 22.9565 2.506C23.1035 2.506 23.2466 2.53089 23.3858 2.58067C23.525 2.63044 23.6518 2.71211 23.7661 2.82567L25.0635 4.08333C25.1879 4.21244 25.282 4.35439 25.3458 4.50917C25.4096 4.66394 25.4418 4.8195 25.4426 4.97583C25.4434 5.13217 25.4197 5.28072 25.3715 5.4215C25.3248 5.5615 25.2369 5.69567 25.1078 5.824L14.6066 16.3333H11.6666ZM22.7103 6.587L24.2818 4.99917L22.9856 3.63417L21.3675 5.24533L22.7103 6.587ZM6.55079 23.3333C6.01335 23.3333 5.56496 23.1537 5.20563 22.7943C4.84629 22.435 4.66663 21.9862 4.66663 21.448V6.552C4.66663 6.01456 4.84668 5.56617 5.20679 5.20683C5.5669 4.8475 6.01529 4.66744 6.55196 4.66667H16.3356L8.88529 12.1182V19.1158H15.764L23.3333 11.5442V21.448C23.3333 21.9847 23.1536 22.4331 22.7943 22.7932C22.435 23.1533 21.9862 23.3333 21.448 23.3333H6.55079Z" fill="white"/>
</svg>
