<svg width="100%" height="100%" viewBox="0 0 276 52" fill="inherit" xmlns="http://www.w3.org/2000/svg">
<path fill-rule="evenodd" clip-rule="evenodd" d="M32.6983 28.2956C31.7328 25.2692 30.1719 22.3884 28.3244 19.8149C26.1272 16.7565 23.511 14.007 21.5422 10.7901C19.5734 7.57484 18.2724 3.69539 19.0899 0C14.3112 4.62204 10.8697 10.6589 9.30251 17.171C9.33243 17.0446 8.26613 16.6573 8.2614 11.8752C8.2614 11.8672 8.25195 11.864 8.24722 11.8704C6.21384 14.8552 5.35228 16.5821 4.80102 17.7296C3.70636 20.007 2.81646 22.3852 1.98956 24.7779C0.587762 28.8349 -0.421844 33.1593 0.1751 37.4133C0.937423 42.8371 4.45451 47.7808 9.27731 50.2311C14.1001 52.6814 20.0947 52.5773 24.8388 49.9734C29.5828 47.3695 32.9534 42.3426 33.6181 36.9059C33.9725 33.9947 33.5866 31.0836 32.6983 28.2972V28.2956Z" fill="url(#paint0_linear_184_1351)"/>
<path fill-rule="evenodd" clip-rule="evenodd" d="M14.5712 9.07288C13.8781 10.5933 13.3867 12.2097 13.1221 13.863C12.8827 15.3626 12.6275 16.6269 13.1583 18.2353C13.4922 19.2484 14.1427 20.1671 15.0216 20.7128C15.9572 21.2938 16.9259 21.8267 18.052 21.8587C16.1588 21.8059 14.2325 21.8859 12.4275 22.4685C9.30891 23.4768 6.76363 26.2919 7.07707 29.8001C7.16527 30.7827 7.62991 31.7878 8.42058 32.3832C9.37349 33.1017 10.6871 32.9065 11.7597 32.5768C14.0797 31.863 16.1431 30.469 18.4773 29.7953C18.9781 29.6512 19.5593 29.6336 19.9783 29.9473C20.3311 30.213 20.5012 30.6659 20.5642 31.1076C21.1722 35.3632 15.1019 37.2533 12.2039 38.5864C11.1974 39.0489 10.202 39.7291 9.78773 40.7694C9.26009 42.0962 9.83498 43.639 10.7312 44.7417C12.5882 47.0255 15.7414 47.9873 18.6269 47.5584C22.7394 46.9471 26.551 43.8726 28.0551 39.9404C30.5595 33.3914 28.7954 28.0844 25.5981 22.6797C24.0356 20.0406 20.602 16.4397 19.2727 13.4485C18.0252 10.6413 17.3117 6.9139 17.6598 3.85388C16.1698 5.36309 15.4595 7.13156 14.5759 9.07288H14.5712Z" fill="#FFD000"/>
<path fill-rule="evenodd" clip-rule="evenodd" d="M18.4409 51.9211C18.4409 51.9211 30.238 45.0569 26.5036 33.8251C30.238 38.2695 27.6644 44.3463 26.554 45.7739C23.2558 50.0134 18.4409 51.9195 18.4409 51.9195V51.9211Z" fill="url(#paint1_linear_184_1351)"/>
<path fill-rule="evenodd" clip-rule="evenodd" d="M18.4409 51.9212C22.0068 49.567 24.1946 47.2207 26.1335 44.3223C27.3447 42.5107 28.1306 40.4653 28.2062 38.3688C28.3669 33.982 26.7351 30.1409 25.0892 26.1863C30.5294 34.1468 27.7132 26.8537 24.215 20.6648C27.3777 24.2258 30.3026 28.102 30.6397 33.0617C30.783 35.1631 30.5467 37.3029 29.9356 39.3146C29.3056 41.3888 28.3228 42.9364 27.1604 44.7513C26.0768 46.4397 24.7884 47.7777 23.1235 49.1621C21.7044 50.3416 20.1908 51.4155 18.4425 51.9228" fill="url(#paint2_linear_184_1351)"/>
<path fill-rule="evenodd" clip-rule="evenodd" d="M18.4409 51.9212C23.2606 49.8758 27.1194 45.5819 29.2788 40.7486C31.5138 35.7456 30.6129 29.5808 28.285 24.7651C26.9808 22.0667 25.2861 19.9254 24.8372 16.8509C24.4151 13.9542 24.8514 10.8957 25.9303 8.25183C25.2168 10.2492 26.0358 12.0545 26.8044 14.0294C28.0487 17.2286 29.8143 19.2564 31.3547 22.3196C34.2197 28.0139 34.9805 35.4991 32.525 41.3455C30.0537 47.2287 24.7254 51.5691 18.4393 51.9196L18.4409 51.9212Z" fill="url(#paint3_linear_184_1351)"/>
<path d="M51.3637 24.7076V30.8408H62.0298V35.1502H51.3637V43.603H48.3112C47.0344 43.603 46 42.5674 46 41.2892V22.712C46 21.4337 47.0344 20.3982 48.3112 20.3982H62.0263V24.7076H51.3649H51.3637Z" fill="white"/>
<path d="M105.839 32C105.839 25.0057 111.203 20 118.423 20C122.429 20 125.774 21.4585 127.959 24.1103L124.515 27.2924C122.958 25.5017 121.004 24.5745 118.687 24.5745C114.35 24.5745 111.27 27.6246 111.27 32C111.27 36.3754 114.35 39.4255 118.687 39.4255C121.006 39.4255 122.959 38.4972 124.515 36.6747L127.959 39.8567C125.774 42.5415 122.429 44 118.39 44C111.204 44 105.841 38.9943 105.841 32H105.839Z" fill="white"/>
<path d="M151 22.712V41.288C151 42.5663 149.966 43.6018 148.689 43.6018H145.636V34.0876H135.107V43.6018H129.743V20.3982H135.107V29.5472H145.636V20.3982H148.689C149.966 20.3982 151 21.4337 151 22.712Z" fill="white"/>
<path d="M98.4271 20.3982V34.4869L86.9042 20.3982H81.6064V30.3896L86.5936 36.4979C86.7983 35.546 86.9042 34.5117 86.9042 33.3925V28.6189L99.3214 43.603H103.725V20.3982H98.4271Z" fill="white"/>
<path d="M80.2191 31.7161V33.1934C80.2191 37.6018 78.3315 39.4255 75.0531 39.4255C71.7746 39.4255 69.8871 37.6018 69.8871 33.1934V20.3982H64.5234V33.3925C64.5234 40.2219 68.4303 44 75.0201 44C80.1367 44 83.6352 41.7204 84.9438 37.5028L80.2191 31.7149V31.7161Z" fill="white"/>
<path fill-rule="evenodd" clip-rule="evenodd" d="M121.794 31.5877C121.581 30.9316 121.239 30.3072 120.831 29.7488C120.348 29.0855 119.772 28.4894 119.339 27.792C118.906 27.0945 118.619 26.2534 118.799 25.4523C117.747 26.4548 116.99 27.7637 116.646 29.175C116.653 29.1479 116.417 29.0631 116.416 28.0264C116.416 28.0252 116.414 28.024 116.413 28.0264C115.966 28.6732 115.776 29.0478 115.654 29.2964C115.412 29.79 115.217 30.306 115.035 30.8243C114.726 31.7032 114.504 32.641 114.636 33.5634C114.803 34.7391 115.577 35.8112 116.639 36.3425C117.7 36.8738 119.019 36.8514 120.063 36.2871C121.107 35.7228 121.849 34.6331 121.995 33.4538C122.073 32.8224 121.988 32.1921 121.793 31.5866L121.794 31.5877Z" fill="url(#paint4_linear_184_1351)"/>
<path d="M167 20V44" stroke="#ADADAD"/>
<path d="M189.206 25.288H183.998V23.224H196.886V25.288H191.678V40H189.206V25.288ZM207.927 23.224H218.991V25.288H210.375V30.592H216.807V32.632H210.375V37.96H218.991V40H207.927V23.224ZM236.62 23.224H238.972L245.668 40H243.172L241.492 35.824H234.076L232.444 40H229.924L236.62 23.224ZM240.82 33.784L237.796 25.936L234.772 33.784H240.82ZM257.193 23.224H259.641L265.617 36.304L271.593 23.224H274.041V40H271.665V28.072L266.217 40H265.017L259.545 28.072V40H257.193V23.224Z" fill="#ADADAD"/>
<defs>
<linearGradient id="paint0_linear_184_1351" x1="12.8999" y1="56.8409" x2="23.0321" y2="1.92305" gradientUnits="userSpaceOnUse">
<stop stop-color="#BA0000"/>
<stop offset="0.11" stop-color="#C31001"/>
<stop offset="0.53" stop-color="#E34A04"/>
<stop offset="0.84" stop-color="#F76E07"/>
<stop offset="1" stop-color="#FF7C08"/>
</linearGradient>
<linearGradient id="paint1_linear_184_1351" x1="25.6877" y1="33.8379" x2="20.4813" y2="61.5708" gradientUnits="userSpaceOnUse">
<stop stop-color="#FFC700"/>
<stop offset="0.26" stop-color="#FF980B"/>
<stop offset="0.6" stop-color="#FF5E1A"/>
<stop offset="0.86" stop-color="#FF3A23"/>
<stop offset="1" stop-color="#FF2D27"/>
</linearGradient>
<linearGradient id="paint2_linear_184_1351" x1="25.9413" y1="16.3868" x2="23.8567" y2="55.77" gradientUnits="userSpaceOnUse">
<stop stop-color="#FFC700"/>
<stop offset="0.26" stop-color="#FF980B"/>
<stop offset="0.6" stop-color="#FF5E1A"/>
<stop offset="0.86" stop-color="#FF3A23"/>
<stop offset="1" stop-color="#FF2D27"/>
</linearGradient>
<linearGradient id="paint3_linear_184_1351" x1="26.2216" y1="12.5986" x2="26.2216" y2="44.1223" gradientUnits="userSpaceOnUse">
<stop stop-color="#FFC700"/>
<stop offset="0.26" stop-color="#FF980B"/>
<stop offset="0.6" stop-color="#FF5E1A"/>
<stop offset="0.86" stop-color="#FF3A23"/>
<stop offset="1" stop-color="#FF2D27"/>
</linearGradient>
<linearGradient id="paint4_linear_184_1351" x1="115.284" y1="46.5153" x2="120.192" y2="24.5487" gradientUnits="userSpaceOnUse">
<stop stop-color="#BA0000"/>
<stop offset="0.11" stop-color="#C31001"/>
<stop offset="0.53" stop-color="#E34A04"/>
<stop offset="0.83" stop-color="#F76E07"/>
<stop offset="0.99" stop-color="#FF7C08"/>
</linearGradient>
</defs>
</svg>
