<svg width="28" height="28" viewBox="0 0 28 28" fill="none" xmlns="http://www.w3.org/2000/svg">
<g clip-path="url(#clip0_67_457)">
<path d="M14.28 16.66V11.46H27.66C27.86 12.34 28.02 13.16 28.02 14.34C28.02 22.34 22.54 28.02 14.3 28.02C6.06 28.02 0 21.72 0 14C0 6.28 6.4 0 14.28 0C18.14 0 21.36 1.38 23.84 3.66L19.78 7.52C18.76 6.56 16.96 5.44 14.28 5.44C9.56 5.44 5.7 9.3 5.7 14C5.7 18.7 9.56 22.56 14.28 22.56C19.76 22.56 21.76 18.84 22.14 16.66H14.26H14.28Z" fill="#292929"/>
</g>
<defs>
<clipPath id="clip0_67_457">
<rect width="28" height="28" fill="white"/>
</clipPath>
</defs>
</svg>
