<svg width="53" height="52" viewBox="0 0 53 52" fill="none" xmlns="http://www.w3.org/2000/svg">
<path fill-rule="evenodd" clip-rule="evenodd" d="M48.1668 26.1191C48.1668 38.0852 38.4662 47.7858 26.5001 47.7858C14.5339 47.7858 4.8335 38.0852 4.8335 26.1191C4.8335 14.153 14.5339 4.45244 26.5001 4.45244C38.4662 4.45244 48.1668 14.1529 48.1668 26.1191ZM22.1667 20.7024C22.1667 22.4972 20.7116 23.9524 18.9167 23.9524C17.1217 23.9524 15.6667 22.4972 15.6667 20.7024C15.6667 18.9076 17.1217 17.4524 18.9167 17.4524C20.7116 17.4524 22.1667 18.9075 22.1667 20.7024ZM34.0835 23.9524C35.8783 23.9524 37.3335 22.4972 37.3335 20.7024C37.3335 18.9076 35.8783 17.4524 34.0835 17.4524C32.2884 17.4524 30.8335 18.9075 30.8335 20.7024C30.8335 22.4972 32.2884 23.9524 34.0835 23.9524ZM20.7074 36.0469C21.786 33.9368 23.977 32.5 26.4999 32.5C29.0227 32.5 31.2137 33.9368 32.2923 36.0469C32.5083 36.4692 32.677 36.9141 32.7953 37.3735L36.9918 36.2934C36.7941 35.525 36.5121 34.7809 36.1508 34.0745C34.3604 30.5722 30.7129 28.1668 26.4999 28.1668C22.2869 28.1668 18.6394 30.5722 16.8491 34.0745C16.4878 34.7809 16.2057 35.525 16.008 36.2934L20.2046 37.3735C20.3228 36.9141 20.4914 36.4692 20.7074 36.0469Z" fill="#FF9B05"/>
</svg>
