<svg width="100%" height="100%" viewBox="0 0 29 28" fill="inherit" xmlns="http://www.w3.org/2000/svg">
<path opacity="0.5" d="M11.3549 6.62408C11.3003 7.23102 11.3003 7.99336 11.3003 8.95731V20.0417C11.3003 21.0057 11.3003 21.768 11.3549 22.3749H10.2503C7.7753 22.3749 6.53728 22.3749 5.76864 21.6063C5 20.8366 5 19.5996 5 17.1246V11.8744C5 9.39938 5 8.16137 5.76864 7.39273C6.53728 6.62408 7.7753 6.62408 10.2503 6.62408H11.3549Z" fill="#676767"/>
<path fill-rule="evenodd" clip-rule="evenodd" d="M12.0427 4.42838C11.3004 5.08677 11.3004 6.29118 11.3004 8.69896V20.3C11.3004 22.7078 11.3004 23.9122 12.0427 24.5706C12.7851 25.229 13.9202 25.0315 16.1905 24.6357L18.6371 24.2093C21.1509 23.7704 22.4078 23.551 23.1544 22.629C23.901 21.706 23.901 20.3724 23.901 17.7042V11.2947C23.901 8.62756 23.901 7.29399 23.1555 6.37099C22.4079 5.44904 21.1499 5.22958 18.636 4.7917L16.1915 4.36433C13.9213 3.96846 12.7862 3.77105 12.0438 4.42943M15.2391 13.4022C15.2391 12.9464 14.8863 12.5779 14.4516 12.5779C14.0169 12.5779 13.664 12.9464 13.664 13.4011V15.5999C13.664 16.0546 14.0169 16.4232 14.4516 16.4232C14.8863 16.4232 15.2391 16.0546 15.2391 15.5999V13.4022Z" fill="inherit"/>
</svg>
