<svg width="100%" height="100%" viewBox="0 0 193 327" fill="none" xmlns="http://www.w3.org/2000/svg">
<path fill-rule="evenodd" clip-rule="evenodd" d="M156.985 108.829C153.265 97.1892 147.251 86.1093 140.132 76.2113C131.666 64.4481 121.587 53.8729 114.001 41.5004C106.415 29.134 101.403 14.2131 104.552 0C86.1401 17.7771 72.8802 40.9956 66.842 66.0424C66.9573 65.5561 62.8489 64.0665 62.8307 45.6738C62.8307 45.643 62.7943 45.6307 62.7761 45.6553C54.9415 57.1354 51.622 63.7771 49.498 68.1906C45.2804 76.9499 41.8516 86.097 38.6656 95.2995C33.2646 110.904 29.3747 127.536 31.6746 143.897C34.6118 164.758 48.163 183.772 66.7449 193.197C85.3269 202.621 108.424 202.221 126.702 192.206C144.981 182.191 157.968 162.856 160.529 141.946C161.894 130.749 160.407 119.552 156.985 108.835V108.829Z" fill="url(#paint0_linear_67_433)"/>
<path fill-rule="evenodd" clip-rule="evenodd" d="M87.1416 34.8955C84.4714 40.7433 82.578 46.9603 81.5585 53.319C80.6361 59.0867 79.653 63.9495 81.6981 70.1358C82.9846 74.0322 85.4909 77.5655 88.8772 79.6645C92.4819 81.8989 96.2141 83.9487 100.553 84.0718C93.2587 83.8687 85.8368 84.1765 78.8823 86.4171C66.8665 90.295 57.0597 101.123 58.2673 114.615C58.6072 118.395 60.3974 122.261 63.4438 124.55C67.1153 127.314 72.1765 126.563 76.3092 125.295C85.2482 122.55 93.198 117.188 102.192 114.597C104.121 114.043 106.361 113.975 107.975 115.182C109.334 116.204 109.99 117.946 110.233 119.644C112.575 136.012 89.1867 143.282 78.0205 148.409C74.1427 150.188 70.3074 152.804 68.7113 156.805C66.6784 161.908 68.8934 167.842 72.3464 172.083C79.5012 180.867 91.6505 184.567 102.768 182.917C118.613 180.565 133.299 168.741 139.095 153.617C148.744 128.428 141.947 108.017 129.628 87.2296C123.608 77.0792 110.378 63.2293 105.256 51.7247C100.45 40.9279 97.7009 26.5918 99.0421 14.8224C93.3012 20.6271 90.5643 27.4289 87.1598 34.8955H87.1416Z" fill="#FFD000"/>
<path fill-rule="evenodd" clip-rule="evenodd" d="M102.052 199.697C102.052 199.697 147.505 173.296 133.117 130.096C147.505 147.19 137.589 170.563 133.311 176.053C120.603 192.359 102.052 199.69 102.052 199.69V199.697Z" fill="url(#paint1_linear_67_433)"/>
<path fill-rule="evenodd" clip-rule="evenodd" d="M102.052 199.697C115.791 190.642 124.22 181.618 131.691 170.471C136.357 163.502 139.386 155.636 139.677 147.572C140.296 130.7 134.009 115.927 127.667 100.716C148.628 131.334 137.778 103.283 124.299 79.4799C136.485 93.1759 147.754 108.085 149.053 127.16C149.605 135.243 148.695 143.472 146.34 151.21C143.913 159.187 140.126 165.14 135.647 172.12C131.472 178.614 126.508 183.76 120.094 189.085C114.626 193.621 108.794 197.752 102.058 199.703" fill="url(#paint2_linear_67_433)"/>
<path fill-rule="evenodd" clip-rule="evenodd" d="M102.052 199.697C120.622 191.83 135.49 175.315 143.81 156.725C152.421 137.483 148.95 113.772 139.981 95.2502C134.956 84.872 128.426 76.6359 126.696 64.8112C125.07 53.6698 126.751 41.9066 130.908 31.7377C128.159 39.4198 131.315 46.3632 134.276 53.9591C139.07 66.2639 145.873 74.0629 151.808 85.8446C162.847 107.746 165.778 136.535 156.317 159.021C146.796 181.649 126.266 198.342 102.046 199.691L102.052 199.697Z" fill="url(#paint3_linear_67_433)"/>
<path d="M10.3079 231.631V242.875H29.8117V250.775H10.3079V266.272H4.72612C2.39143 266.272 0.5 264.374 0.5 262.03V227.972C0.5 225.628 2.39143 223.73 4.72612 223.73H29.8052V231.631H10.31H10.3079Z" fill="white"/>
<path d="M109.921 245C109.921 232.177 119.729 223 132.93 223C140.257 223 146.372 225.674 150.368 230.536L144.07 236.369C141.223 233.086 137.651 231.387 133.414 231.387C125.482 231.387 119.851 236.978 119.851 245C119.851 253.022 125.482 258.613 133.414 258.613C137.653 258.613 141.225 256.911 144.07 253.57L150.368 259.404C146.372 264.326 140.257 267 132.87 267C119.731 267 109.923 257.823 109.923 245H109.921Z" fill="white"/>
<path d="M192.5 227.972V262.028C192.5 264.371 190.609 266.27 188.274 266.27H182.692V248.827H163.438V266.27H153.63V223.73H163.438V240.503H182.692V223.73H188.274C190.609 223.73 192.5 225.628 192.5 227.972Z" fill="white"/>
<path d="M96.3666 223.73V249.559L75.2963 223.73H65.6089V242.047L74.7282 253.246C75.1027 251.501 75.2963 249.605 75.2963 247.553V238.801L98.002 266.272H106.054V223.73H96.3666Z" fill="white"/>
<path d="M63.0721 244.479V247.188C63.0721 255.27 59.6206 258.613 53.6257 258.613C47.6308 258.613 44.1793 255.27 44.1793 247.188V223.73H34.3715V247.553C34.3715 260.073 41.5154 267 53.5654 267C62.9214 267 69.3187 262.821 71.7115 255.089L63.0721 244.477V244.479Z" fill="white"/>
<path fill-rule="evenodd" clip-rule="evenodd" d="M139.095 244.244C138.705 243.041 138.079 241.896 137.335 240.873C136.45 239.657 135.398 238.564 134.606 237.285C133.814 236.007 133.289 234.464 133.618 232.996C131.695 234.834 130.311 237.233 129.681 239.821C129.694 239.771 129.263 239.616 129.261 237.715C129.261 237.713 129.257 237.711 129.255 237.715C128.437 238.901 128.09 239.588 127.867 240.043C127.426 240.948 127.068 241.894 126.735 242.845C126.171 244.456 125.764 246.175 126.005 247.866C126.311 250.022 127.727 251.987 129.668 252.961C131.609 253.935 134.021 253.894 135.929 252.86C137.838 251.825 139.196 249.827 139.463 247.665C139.605 246.508 139.45 245.352 139.093 244.242L139.095 244.244Z" fill="url(#paint4_linear_67_433)"/>
<path d="M192.5 279H0.5" stroke="#ADADAD"/>
<path d="M14.4597 298.932H6.64766V295.836H25.9797V298.932H18.1677V321H14.4597V298.932ZM56.9408 295.836H73.5368V298.932H60.6128V306.888H70.2608V309.948H60.6128V317.94H73.5368V321H56.9408V295.836ZM114.38 295.836H117.908L127.952 321H124.208L121.688 314.736H110.564L108.116 321H104.336L114.38 295.836ZM120.68 311.676L116.144 299.904L111.608 311.676H120.68ZM159.639 295.836H163.311L172.275 315.456L181.239 295.836H184.911V321H181.347V303.108L173.175 321H171.375L163.167 303.108V321H159.639V295.836Z" fill="#ADADAD"/>
<defs>
<linearGradient id="paint0_linear_67_433" x1="80.7026" y1="218.619" x2="119.609" y2="7.37185" gradientUnits="userSpaceOnUse">
<stop stop-color="#BA0000"/>
<stop offset="0.11" stop-color="#C31001"/>
<stop offset="0.53" stop-color="#E34A04"/>
<stop offset="0.84" stop-color="#F76E07"/>
<stop offset="1" stop-color="#FF7C08"/>
</linearGradient>
<linearGradient id="paint1_linear_67_433" x1="129.973" y1="130.146" x2="109.981" y2="236.823" gradientUnits="userSpaceOnUse">
<stop stop-color="#FFC700"/>
<stop offset="0.26" stop-color="#FF980B"/>
<stop offset="0.6" stop-color="#FF5E1A"/>
<stop offset="0.86" stop-color="#FF3A23"/>
<stop offset="1" stop-color="#FF2D27"/>
</linearGradient>
<linearGradient id="paint2_linear_67_433" x1="130.95" y1="63.0263" x2="122.947" y2="214.501" gradientUnits="userSpaceOnUse">
<stop stop-color="#FFC700"/>
<stop offset="0.26" stop-color="#FF980B"/>
<stop offset="0.6" stop-color="#FF5E1A"/>
<stop offset="0.86" stop-color="#FF3A23"/>
<stop offset="1" stop-color="#FF2D27"/>
</linearGradient>
<linearGradient id="paint3_linear_67_433" x1="132.031" y1="48.4561" x2="132.031" y2="169.701" gradientUnits="userSpaceOnUse">
<stop stop-color="#FFC700"/>
<stop offset="0.26" stop-color="#FF980B"/>
<stop offset="0.6" stop-color="#FF5E1A"/>
<stop offset="0.86" stop-color="#FF3A23"/>
<stop offset="1" stop-color="#FF2D27"/>
</linearGradient>
<linearGradient id="paint4_linear_67_433" x1="127.191" y1="271.611" x2="136.211" y2="231.349" gradientUnits="userSpaceOnUse">
<stop stop-color="#BA0000"/>
<stop offset="0.11" stop-color="#C31001"/>
<stop offset="0.53" stop-color="#E34A04"/>
<stop offset="0.83" stop-color="#F76E07"/>
<stop offset="0.99" stop-color="#FF7C08"/>
</linearGradient>
</defs>
</svg>
