<svg width="100%" height="100%" viewBox="0 0 131 130" fill="inherit" xmlns="http://www.w3.org/2000/svg">
<path fill-rule="evenodd" clip-rule="evenodd" d="M49.0996 75.1717C47.2573 74.2151 45.2028 73.6508 43.1448 73.9233C37.9409 74.6121 33.0736 76.9941 29.3209 80.7468C24.819 85.2487 22.2898 103.321 22.2898 109.687C22.2898 113.507 23.8073 117.171 26.5085 119.872C29.2097 122.573 32.8732 124.091 36.6932 124.091H94.3069C98.1269 124.091 101.79 122.573 104.492 119.872C107.193 117.171 108.71 113.507 108.71 109.687C108.71 103.321 106.181 85.2487 101.679 80.7468C97.9264 76.9941 93.0591 74.6121 87.8553 73.9233C85.7973 73.6508 83.7428 74.2151 81.9004 75.1717C71.6185 80.5105 59.3815 80.5105 49.0996 75.1717Z" fill="#676767"/>
<path fill-rule="evenodd" clip-rule="evenodd" d="M83.509 37.8502C82.4101 34.4971 80.6337 31.3053 78.5311 28.454C76.0305 25.0654 73.0531 22.0191 70.8124 18.4549C68.5717 14.8926 67.0911 10.5943 68.0214 6.5C62.5828 11.621 58.6661 18.3095 56.8825 25.5247C56.9166 25.3846 55.703 24.9555 55.6977 19.6572C55.6977 19.6483 55.6869 19.6448 55.6815 19.6519C53.3674 22.9589 52.3868 24.8722 51.7594 26.1435C50.5136 28.6668 49.5008 31.3018 48.5598 33.9527C46.9644 38.4478 45.8154 43.239 46.4947 47.9522C47.3623 53.9616 51.3651 59.439 56.8539 62.1538C62.3426 64.8685 69.165 64.7533 74.5642 61.8683C79.9633 58.9833 83.7994 53.4136 84.5558 47.3901C84.9591 44.1646 84.52 40.9392 83.509 37.852V37.8502Z" fill="#676767"/>
</svg>
