<svg width="100%" height="100%" viewBox="0 0 28 28" fill="none" xmlns="http://www.w3.org/2000/svg">
<path d="M12.3677 20.0372C12.3735 19.9081 12.586 19.8565 12.6494 19.9691C12.9475 20.4973 13.4545 21.2732 14.0297 21.6265C14.6048 21.9797 15.5274 22.0795 16.133 22.1053C16.2621 22.1112 16.3126 22.3237 16.1999 22.387C15.6717 22.6852 14.8971 23.1922 14.5438 23.7673C14.1905 24.3425 14.0907 25.265 14.0649 25.8707C14.059 25.9998 13.8454 26.0503 13.7832 25.9376C13.4851 25.4094 12.978 24.6347 12.4017 24.2814C11.8266 23.9281 10.904 23.8284 10.2995 23.8026C10.1704 23.7967 10.1188 23.5831 10.2315 23.5209C10.7596 23.2227 11.5355 22.7157 11.8888 22.1394C12.2409 21.5642 12.3418 20.6417 12.3677 20.0372Z" fill="inherit"/>
<path opacity="0.5" d="M22.0099 18.8634C21.9994 18.7343 21.7752 18.6803 21.7071 18.7906C21.5052 19.1228 21.2141 19.5219 20.889 19.7214C20.5639 19.921 20.0768 19.9984 19.6895 20.0289C19.5604 20.0383 19.5064 20.2637 19.6167 20.3306C19.9477 20.5325 20.3479 20.8236 20.5475 21.1487C20.747 21.4738 20.8245 21.9621 20.855 22.3494C20.8644 22.4785 21.0897 22.5313 21.1566 22.421C21.3585 22.09 21.6496 21.6898 21.9747 21.4914C22.2999 21.293 22.7881 21.2132 23.1755 21.1839C23.3046 21.1733 23.3574 20.9491 23.2471 20.8811C22.9161 20.6792 22.5158 20.3881 22.3175 20.063C22.1191 19.7378 22.0393 19.2507 22.0099 18.8634Z" fill="inherit"/>
<path d="M17.5626 5.35027L17.2786 4.9911C16.1788 3.60258 15.6295 2.90773 14.9898 3.00984C14.3513 3.11313 14.045 3.94413 13.4334 5.60731L13.275 6.0369C13.1013 6.50992 13.0144 6.74584 12.8478 6.91955C12.6811 7.09326 12.4534 7.18364 11.998 7.36557L11.5836 7.53107L11.2937 7.64844C9.88525 8.21183 9.17631 8.53226 9.08476 9.15434C8.98851 9.8175 9.65989 10.3856 11.0026 11.5206L11.3501 11.814C11.7327 12.1368 11.9228 12.2988 12.032 12.5183C12.1423 12.7378 12.1576 12.9913 12.1881 13.4983L12.2163 13.9596C12.3266 15.7437 12.3806 16.6357 12.9616 16.9432C13.5414 17.2508 14.2621 16.7707 15.7034 15.8094L16.0767 15.5606C16.4863 15.2871 16.6906 15.1498 16.9253 15.1134C17.1601 15.077 17.396 15.1416 17.8713 15.273L18.3021 15.3927C19.9723 15.8552 20.8068 16.0864 21.2611 15.6134C21.7165 15.1404 21.49 14.2753 21.0381 12.5464L20.9207 12.0992C20.7928 11.6074 20.7282 11.3621 20.7634 11.1192C20.7986 10.8762 20.9301 10.6626 21.193 10.2365L21.4313 9.84919C22.3527 8.35151 22.8139 7.60266 22.5158 7.00171C22.2165 6.40311 21.3562 6.34794 19.6355 6.24113L19.1894 6.21296C18.7012 6.18244 18.457 6.16719 18.2446 6.05451C18.0321 5.94183 17.876 5.74464 17.5638 5.35027" fill="inherit"/>
<path opacity="0.5" d="M10.6752 16.2941C8.16689 17.5195 6.07881 19.4609 5.29124 21.7802C4.40859 16.2554 5.63397 12.6872 7.59763 10.4689C7.76664 10.8151 7.98731 11.1015 8.18449 11.3257C8.5953 11.7905 9.18451 12.2882 9.78312 12.794L10.2139 13.1579L10.4134 13.3281C10.4193 13.4032 10.4252 13.4924 10.431 13.6063L10.4662 14.1755C10.5132 14.9443 10.5601 15.6943 10.6752 16.2941Z" fill="inherit"/>
</svg>
